<?xml version="1.0" encoding="UTF-8" standalone="no"?>
<!-- Created with Inkscape (http://www.inkscape.org/) -->

<svg
   width="14.5in"
   height="6in"
   viewBox="0 0 368.3 152.4"
   version="1.1"
   id="svg1"
   inkscape:version="1.4.3 (1:1.4.3+202512261035+0d15f75042)"
   sodipodi:docname="lazuli-wordmark.svg"
   inkscape:export-filename="lazuli-wordmark.png"
   inkscape:export-xdpi="100"
   inkscape:export-ydpi="100"
   xmlns:inkscape="http://www.inkscape.org/namespaces/inkscape"
   xmlns:sodipodi="http://sodipodi.sourceforge.net/DTD/sodipodi-0.dtd"
   xmlns:xlink="http://www.w3.org/1999/xlink"
   xmlns="http://www.w3.org/2000/svg"
   xmlns:svg="http://www.w3.org/2000/svg">
  <sodipodi:namedview
     id="namedview1"
     pagecolor="#505050"
     bordercolor="#ffffff"
     borderopacity="1"
     inkscape:showpageshadow="0"
     inkscape:pageopacity="0"
     inkscape:pagecheckerboard="1"
     inkscape:deskcolor="#505050"
     inkscape:document-units="mm"
     inkscape:zoom="0.48189506"
     inkscape:cx="580.0018"
     inkscape:cy="200.25107"
     inkscape:window-width="1920"
     inkscape:window-height="983"
     inkscape:window-x="1920"
     inkscape:window-y="32"
     inkscape:window-maximized="1"
     inkscape:current-layer="layer1"
     showgrid="false" />
  <defs
     id="defs1">
    <linearGradient
       id="linearGradient55"
       inkscape:collect="always">
      <stop
         style="stop-color:#1b186a;stop-opacity:1;"
         offset="0"
         id="stop56" />
      <stop
         style="stop-color:#160b30;stop-opacity:1;"
         offset="1"
         id="stop55" />
    </linearGradient>
    <linearGradient
       id="linearGradient50"
       inkscape:collect="always">
      <stop
         style="stop-color:#e17100;stop-opacity:1;"
         offset="0"
         id="stop50" />
      <stop
         style="stop-color:#f0b100;stop-opacity:1;"
         offset="1"
         id="stop51" />
    </linearGradient>
    <linearGradient
       id="linearGradient48"
       inkscape:collect="always">
      <stop
         style="stop-color:#1b186a;stop-opacity:1;"
         offset="0"
         id="stop48" />
      <stop
         style="stop-color:#2953b8;stop-opacity:1;"
         offset="0.99858773"
         id="stop49" />
    </linearGradient>
    <linearGradient
       inkscape:collect="always"
       xlink:href="#linearGradient48"
       id="linearGradient49"
       x1="76.199997"
       y1="146.1487"
       x2="76.199997"
       y2="6.251298"
       gradientUnits="userSpaceOnUse" />
    <linearGradient
       inkscape:collect="always"
       xlink:href="#linearGradient50"
       id="linearGradient51"
       x1="75.682816"
       y1="110.89703"
       x2="76.199997"
       y2="6.251298"
       gradientUnits="userSpaceOnUse" />
    <linearGradient
       inkscape:collect="always"
       xlink:href="#linearGradient55"
       id="linearGradient56"
       x1="253.85841"
       y1="5.6425495"
       x2="250.064"
       y2="152.39999"
       gradientUnits="userSpaceOnUse"
       gradientTransform="translate(13.032241,4.7625001)" />
  </defs>
  <g
     inkscape:label="Layer 1"
     inkscape:groupmode="layer"
     id="layer1">
    <path
       id="path47"
       style="fill:url(#linearGradient49);stroke-width:13.3916;stroke-linecap:round;stroke-linejoin:bevel"
       d="M 47.625,6.251298 V 25.4 H 62.441667 V 6.251298 Z m 21.166667,0 V 25.4 H 83.608333 V 6.251298 Z m 21.166666,0 V 25.4 H 104.775 V 6.251298 Z M 17.454232,31.75 10.684102,46.566667 H 41.275 V 31.75 Z m 30.170768,0 V 46.566667 H 62.441667 V 31.75 Z m 42.333333,0 V 46.566667 H 104.775 V 31.75 Z m 21.166667,0 v 14.816667 h 30.5909 L 134.94577,31.75 Z m -63.5,21.166667 V 67.733333 H 62.441667 V 52.916667 Z m 42.333333,0 V 67.733333 H 104.775 V 52.916667 Z M 4.1346313,74.083333 18.951298,88.9 H 41.275 V 74.083333 Z m 43.4903687,0 V 88.9 H 62.441667 V 74.083333 Z m 0,21.166667 v 22.3237 l 14.816667,14.81667 V 95.25 Z m 21.166667,0 v 43.49037 L 76.2,146.1487 83.608333,138.74037 V 95.25 Z m 21.166666,0 v 37.14037 L 104.775,117.5737 V 95.25 Z" />
    <path
       id="path1"
       style="fill:url(#linearGradient51);stroke-width:13.3916;stroke-linecap:round;stroke-linejoin:bevel"
       d="M 29.105717,6.251298 20.355863,25.4 H 41.275 V 6.251298 Z m 82.019283,0 V 25.4 h 20.91914 L 123.29428,6.251298 Z M 7.7824707,52.916667 1.0123413,67.733333 H 41.275 V 52.916667 Z m 103.3425293,0 v 14.816666 h 40.26266 L 144.61753,52.916667 Z M 25.301298,95.25 41.275,111.2237 V 95.25 Z m 85.823702,0 v 15.9737 L 127.0987,95.25 Z" />
    <path
       id="text51"
       style="font-style:normal;font-variant:normal;font-weight:900;font-stretch:condensed;font-size:84.4771px;font-family:RomeosevkaProp;-inkscape-font-specification:'RomeosevkaProp Heavy Condensed';writing-mode:lr-tb;direction:ltr;fill:url(#linearGradient56);stroke-width:109.861;stroke-linecap:round;stroke-linejoin:bevel"
       d="m 166.95413,10.405048 v 9.208223 h 1.94303 v 43.674337 h -1.94303 v 9.208223 H 197.1125 V 55.600222 h -7.85637 v 7.687386 h -9.37669 V 19.613271 h 4.05453 v -9.208223 z m 37.84575,0 v 9.208223 h 4.64623 l -6.67349,43.674337 h -2.19625 v 9.208223 h 14.86782 v -9.208223 h -2.11201 l 0.92914,-9.545671 h 5.74435 l 0.92966,9.545671 h -2.11201 v 9.208223 h 14.86782 v -9.208223 h -2.19625 l -8.02535,-52.88256 z m 32.86156,0 v 16.895609 h 7.85637 v -7.687386 h 8.70128 l -16.55765,43.674337 v 9.208223 h 29.22923 V 55.600222 h -7.85637 v 7.687386 h -8.70128 l 16.55765,-43.674337 v -9.208223 z m 33.19953,0 v 9.208223 h 1.94303 v 35.564754 c 0,1.46427 0.0848,2.928744 0.25373,4.393014 0.16897,1.46427 0.50651,2.900312 1.01338,4.308264 0.50686,1.351634 1.18302,2.646554 2.02778,3.885551 0.84477,1.182679 1.85848,2.196904 3.04116,3.041675 1.18268,0.844771 2.4776,1.435627 3.88556,1.773535 1.46427,0.394226 2.92874,0.591695 4.39301,0.591695 1.46427,0 2.90032,-0.197469 4.30826,-0.591695 1.46427,-0.337908 2.78763,-0.928764 3.97031,-1.773535 1.18268,-0.844771 2.1969,-1.858996 3.04167,-3.041675 0.84477,-1.238997 1.52041,-2.533917 2.02727,-3.885551 0.50686,-1.407952 0.84494,-2.843994 1.01389,-4.308264 0.16895,-1.46427 0.25321,-2.928744 0.25321,-4.393014 V 19.613271 h 1.94304 v -9.208223 h -14.86783 v 9.208223 h 1.94252 v 35.564754 c 0,0.619499 -0.0279,1.210872 -0.0842,1.774052 0,0.563181 -0.0564,1.126122 -0.16899,1.689303 -0.0563,0.56318 -0.16901,1.126639 -0.33796,1.689819 -0.11264,0.563181 -0.28167,1.126122 -0.50695,1.689303 -0.22527,0.506862 -0.56283,0.957629 -1.01337,1.351855 -0.45054,0.394227 -0.95766,0.591179 -1.52084,0.591179 -0.56318,0 -1.06977,-0.196952 -1.52032,-0.591179 -0.45054,-0.394226 -0.78862,-0.844993 -1.01389,-1.351855 -0.22527,-0.563181 -0.42222,-1.126122 -0.59118,-1.689303 L 283.9553,58.64138 283.78632,56.952077 V 55.178025 19.613271 h 1.94303 v -9.208223 z m 36.66339,0 v 9.208223 h 1.94304 v 43.674337 h -1.94304 v 9.208223 h 30.15837 V 55.600222 h -7.85637 v 7.687386 h -9.37721 V 19.613271 h 4.05505 v -9.208223 z m 33.87545,0 v 9.208223 h 4.98368 v 43.674337 h -4.98368 v 9.208223 h 20.8654 v -9.208223 h -4.89945 V 19.613271 h 4.89945 V 10.405048 Z M 217.1335,25.188641 c 0.11263,0.957407 0.22532,1.943201 0.33796,2.956926 0.11264,0.957407 0.22533,1.942683 0.33796,2.956409 l 1.26711,13.516487 h -3.88607 l 1.26763,-13.516487 c 0.11263,-1.013726 0.22481,-1.999002 0.33744,-2.956409 0.11264,-1.013725 0.22533,-1.999519 0.33797,-2.956926 z m -39.49268,53.274785 c -0.88934,0 -1.7787,0.100423 -2.66806,0.30179 -0.88933,0.201369 -1.71037,0.553881 -2.4629,1.0573 -0.71832,0.50342 -1.35131,1.124071 -1.89859,1.862419 -0.54728,0.704791 -0.97475,1.477105 -1.28261,2.316137 -0.30785,0.805469 -0.52981,1.644565 -0.66662,2.517159 -0.10262,0.872595 -0.154,1.761896 -0.154,2.668054 v 16.360745 c 0,0.90616 0.0514,1.79597 0.154,2.66857 0.13681,0.8726 0.35877,1.72825 0.66662,2.56728 0.30786,0.80548 0.73533,1.57727 1.28261,2.31562 0.54728,0.70478 1.18027,1.30887 1.89859,1.8123 0.75253,0.50342 1.57357,0.85593 2.4629,1.0573 0.88936,0.20137 1.77872,0.30179 2.66806,0.30179 0.85514,0 1.69313,-0.10042 2.51406,-0.30179 0.85513,-0.16781 1.64174,-0.47011 2.36006,-0.90641 0.75252,-0.4363 1.40246,-0.9731 1.94975,-1.61075 0.54729,-0.63768 0.99223,-1.34269 1.33429,-2.1146 0.34205,-0.77191 0.58148,-1.56028 0.7183,-2.36575 0.17102,-0.83904 0.25631,-1.67812 0.25631,-2.51716 v -0.40256 h -6.66987 v 0.20102 c 0,0.46987 -0.0344,0.93988 -0.10284,1.40974 -0.0684,0.46986 -0.18813,0.93988 -0.35915,1.40973 -0.13682,0.43631 -0.3932,0.83902 -0.76946,1.20819 -0.34206,0.33562 -0.75257,0.50333 -1.23145,0.50333 -0.34206,0 -0.66729,-0.10095 -0.97514,-0.30231 -0.30784,-0.23493 -0.54727,-0.50306 -0.7183,-0.80511 -0.17103,-0.30207 -0.30769,-0.62093 -0.41031,-0.95653 -0.0684,-0.33562 -0.13674,-0.67157 -0.20516,-1.00718 -0.0684,-0.36918 -0.11979,-0.72116 -0.15399,-1.05678 v -1.10794 -16.360745 -1.057299 c 0.0342,-0.369176 0.0856,-0.721683 0.15399,-1.0573 0.0684,-0.369174 0.13675,-0.721688 0.20516,-1.0573 0.10262,-0.335611 0.23928,-0.654476 0.41031,-0.956531 0.17103,-0.302047 0.41046,-0.553619 0.7183,-0.754992 0.30785,-0.234928 0.63308,-0.352434 0.97514,-0.352434 0.47888,0 0.88939,0.184797 1.23145,0.553972 0.37626,0.335611 0.63264,0.738332 0.76946,1.208195 0.17102,0.436294 0.29073,0.889233 0.35915,1.35909 0.0684,0.469864 0.10284,0.939876 0.10284,1.409733 v 0.201021 h 6.66987 v -0.402559 c 0,-0.839032 -0.0853,-1.661041 -0.25631,-2.466516 -0.13682,-0.839032 -0.37625,-1.64448 -0.7183,-2.41639 -0.34206,-0.771912 -0.787,-1.476933 -1.33429,-2.1146 -0.54729,-0.637663 -1.19723,-1.174457 -1.94975,-1.610754 -0.71832,-0.436297 -1.50493,-0.738598 -2.36006,-0.906405 -0.82093,-0.201367 -1.65892,-0.30179 -2.51406,-0.30179 z m 12.62197,0.402559 v 37.001345 h 6.66987 V 99.254386 c 0,-0.436297 0.017,-0.889224 0.0512,-1.359084 0.0684,-0.469847 0.17117,-0.922784 0.30799,-1.359081 0.13682,-0.436297 0.3593,-0.839018 0.66715,-1.208192 0.30786,-0.369174 0.7009,-0.553971 1.17977,-0.553971 0.47887,0 0.87244,0.184797 1.18029,0.553971 0.30785,0.369174 0.53032,0.771895 0.66714,1.208192 0.13684,0.436297 0.22212,0.889234 0.25632,1.359081 0.0684,0.46986 0.10283,0.922787 0.10283,1.359084 v 16.612944 h 6.66988 V 99.254386 c 0,-0.704777 -0.0339,-1.409281 -0.10232,-2.114068 -0.0342,-0.738347 -0.13696,-1.443373 -0.30799,-2.114596 -0.13682,-0.704793 -0.34234,-1.392735 -0.61598,-2.063956 -0.27366,-0.67123 -0.63279,-1.291879 -1.07746,-1.862419 -0.44467,-0.570545 -1.00881,-1.006915 -1.69292,-1.308964 -0.68411,-0.335617 -1.38544,-0.503845 -2.10374,-0.503845 -0.61571,0 -1.23122,0.117499 -1.84692,0.352433 -0.58149,0.201367 -1.09477,0.520237 -1.53944,0.956531 -0.41046,0.436299 -0.7696,0.922874 -1.07745,1.459859 -0.27366,0.536977 -0.51308,1.090852 -0.71831,1.661397 V 78.865985 Z m 87.37812,0 v 28.997175 c 0,0.77192 0.0683,1.54371 0.20516,2.31562 0.13682,0.73834 0.37624,1.44285 0.7183,2.11409 0.37626,0.67122 0.85511,1.2753 1.43661,1.81229 0.58148,0.53698 1.23142,0.97336 1.94975,1.30896 0.71831,0.33562 1.45355,0.55406 2.20607,0.65474 0.78672,0.13426 1.57333,0.20103 2.36006,0.20103 v 5.1e-4 c 0.27363,0 0.54748,-0.0507 0.82114,-0.15141 0.27364,-0.0671 0.53002,-0.16754 0.76946,-0.30179 v -5.48752 c -0.23944,0.16777 -0.49582,0.28527 -0.76946,0.35243 -0.27366,0.0671 -0.54751,0.10077 -0.82114,0.10077 -0.34206,0 -0.68373,-0.0839 -1.02578,-0.25166 -0.30785,-0.16781 -0.56475,-0.38626 -0.76998,-0.65474 -0.17103,-0.30206 -0.29074,-0.62092 -0.35915,-0.95653 -0.0342,-0.36918 -0.0512,-0.72117 -0.0512,-1.05679 V 78.865985 Z m 35.86448,0 v 10.823629 h -3.38635 v 5.487003 h 3.38635 v 12.283473 c 0,0.77191 0.0683,1.54422 0.20516,2.31614 0.17102,0.7719 0.44436,1.51005 0.82062,2.21485 0.37626,0.67122 0.87259,1.27531 1.48828,1.81229 0.61569,0.50343 1.28259,0.92271 2.00091,1.25832 0.71832,0.30206 1.47102,0.5205 2.25775,0.65474 0.82092,0.10068 1.62448,0.1509 2.41122,0.1509 h 3.28404 v -5.48701 h -3.28404 c -0.37627,0 -0.7354,-0.0673 -1.07746,-0.20154 -0.34204,-0.13425 -0.63285,-0.35269 -0.87229,-0.65474 -0.20524,-0.30206 -0.35885,-0.62091 -0.46147,-0.95653 -0.0684,-0.36917 -0.10284,-0.73825 -0.10284,-1.10742 V 95.176617 h 5.7981 v -5.487003 h -5.7981 V 78.865985 Z m -93.02223,10.420553 c -0.85514,0 -1.72755,0.08437 -2.61689,0.252181 -0.85515,0.167808 -1.65871,0.469594 -2.41122,0.905888 -0.75253,0.4363 -1.41942,0.990174 -2.00092,1.661397 -0.54729,0.671229 -0.99223,1.392814 -1.33428,2.164726 -0.34206,0.771904 -0.58148,1.59392 -0.7183,2.466511 -0.13682,0.839034 -0.20516,1.678118 -0.20516,2.517145 v 7.048154 c 0,0.83904 0.0683,1.69468 0.20516,2.56728 0.13682,0.83904 0.37624,1.64449 0.7183,2.41639 0.34205,0.77192 0.78699,1.49349 1.33428,2.16473 0.5815,0.67122 1.24839,1.22509 2.00092,1.66139 0.75251,0.4363 1.55607,0.73808 2.41122,0.90589 0.88934,0.16781 1.76175,0.25167 2.61689,0.25167 0.85514,0 1.71009,-0.0839 2.56522,-0.25167 0.88935,-0.16781 1.71038,-0.46959 2.4629,-0.90589 0.75253,-0.4363 1.40247,-0.99017 1.94975,-1.66139 0.5815,-0.67124 1.0434,-1.39281 1.38545,-2.16473 0.34205,-0.7719 0.58147,-1.57735 0.7183,-2.41639 0.13682,-0.8726 0.20515,-1.72824 0.20515,-2.56728 v -7.048154 c 0,-0.839027 -0.0683,-1.678111 -0.20515,-2.517145 -0.13683,-0.872591 -0.37625,-1.694607 -0.7183,-2.466511 -0.34205,-0.771912 -0.80395,-1.493497 -1.38545,-2.164726 -0.54728,-0.671223 -1.19722,-1.225097 -1.94975,-1.661397 -0.75252,-0.436294 -1.57355,-0.73808 -2.4629,-0.905888 -0.85513,-0.167809 -1.71008,-0.252181 -2.56522,-0.252181 z m 21.19044,0 c -0.85513,0 -1.71008,0.100936 -2.56522,0.302307 -0.85513,0.167803 -1.65921,0.470104 -2.41174,0.906404 -0.75252,0.436294 -1.40247,0.989652 -1.94975,1.660881 -0.5473,0.637667 -0.99171,1.359258 -1.33377,2.164726 -0.34204,0.771912 -0.58147,1.577358 -0.7183,2.416385 -0.10261,0.839034 -0.15399,1.678118 -0.15399,2.517145 v 7.048154 c 0,0.83904 0.0514,1.67811 0.15399,2.51715 0.13683,0.83904 0.37626,1.66105 0.7183,2.46652 0.34206,0.77192 0.78647,1.49349 1.33377,2.16473 0.54728,0.63765 1.19723,1.17445 1.94975,1.61075 0.75253,0.4363 1.55661,0.7386 2.41174,0.90641 0.85514,0.20137 1.71009,0.30179 2.56522,0.30179 0.85515,0 1.69313,-0.0839 2.51406,-0.25167 0.85514,-0.16781 1.64175,-0.46959 2.36006,-0.90589 0.71832,-0.4363 1.3513,-0.9736 1.89859,-1.61127 0.58149,-0.63766 1.04339,-1.32561 1.38545,-2.06395 0.34205,-0.77192 0.58148,-1.56027 0.7183,-2.36575 0.17102,-0.83903 0.25632,-1.67813 0.25632,-2.51716 v -0.50333 h -6.66988 v 0.25167 c 0,0.46986 -0.0344,0.93934 -0.10284,1.40921 -0.0684,0.46986 -0.18812,0.92332 -0.35915,1.35961 -0.13682,0.43631 -0.39319,0.83902 -0.76946,1.20819 -0.34205,0.33562 -0.75256,0.50333 -1.23145,0.50333 -0.47888,0 -0.90635,-0.16771 -1.28261,-0.50333 -0.34205,-0.3356 -0.59895,-0.72176 -0.76998,-1.15807 -0.17103,-0.46986 -0.29074,-0.93987 -0.35915,-1.40973 -0.0342,-0.46987 -0.0512,-0.93935 -0.0512,-1.40921 v -7.048154 c 0,-0.469847 0.017,-0.939354 0.0512,-1.409201 0.0684,-0.46987 0.18812,-0.923317 0.35915,-1.359604 0.17103,-0.469858 0.42793,-0.872577 0.76998,-1.208194 0.37626,-0.335612 0.80373,-0.503329 1.28261,-0.503329 0.47889,0 0.8894,0.184797 1.23145,0.553971 0.37627,0.335612 0.63264,0.721252 0.76946,1.157552 0.17103,0.436287 0.29074,0.889734 0.35915,1.359604 0.0684,0.469847 0.10284,0.939354 0.10284,1.409201 v 0.251667 h 6.66988 v -0.503327 c 0,-0.839024 -0.0853,-1.661038 -0.25632,-2.466505 -0.13682,-0.839034 -0.37625,-1.627912 -0.7183,-2.36626 -0.34206,-0.771914 -0.80396,-1.476941 -1.38545,-2.1146 -0.54729,-0.637667 -1.18027,-1.174454 -1.89859,-1.610754 -0.71831,-0.436294 -1.50492,-0.73808 -2.36006,-0.905888 -0.82093,-0.167809 -1.65891,-0.252181 -2.51406,-0.252181 z m 21.49791,0 c -0.85514,0 -1.72703,0.08437 -2.61637,0.252181 -0.85514,0.167808 -1.65922,0.469594 -2.41174,0.905888 -0.75252,0.4363 -1.41941,0.990174 -2.00091,1.661397 -0.54729,0.671229 -0.99171,1.392814 -1.33377,2.164726 -0.34206,0.771904 -0.58149,1.59392 -0.71831,2.466511 -0.13682,0.839034 -0.20567,1.678118 -0.20567,2.517145 v 7.048154 c 0,0.83904 0.0688,1.69468 0.20567,2.56728 0.13682,0.83904 0.37625,1.64449 0.71831,2.41639 0.34206,0.77192 0.78648,1.49349 1.33377,2.16473 0.5815,0.67122 1.24839,1.22509 2.00091,1.66139 0.75252,0.4363 1.5566,0.73808 2.41174,0.90589 0.88934,0.16781 1.76123,0.25167 2.61637,0.25167 0.85514,0 1.7106,-0.0839 2.56574,-0.25167 0.88935,-0.16781 1.71038,-0.46959 2.4629,-0.90589 0.75252,-0.4363 1.40246,-0.99017 1.94975,-1.66139 0.58149,-0.67124 1.04288,-1.39281 1.38493,-2.16473 0.34206,-0.7719 0.58148,-1.57735 0.7183,-2.41639 0.13682,-0.8726 0.20567,-1.72824 0.20567,-2.56728 v -7.048154 c 0,-0.839027 -0.0688,-1.678111 -0.20567,-2.517145 -0.13682,-0.872591 -0.37624,-1.694607 -0.7183,-2.466511 -0.34205,-0.771912 -0.80344,-1.493497 -1.38493,-2.164726 -0.54729,-0.671223 -1.19723,-1.225097 -1.94975,-1.661397 -0.75252,-0.436294 -1.57355,-0.73808 -2.4629,-0.905888 -0.85514,-0.167809 -1.7106,-0.252181 -2.56574,-0.252181 z m 35.50585,0 c -0.75252,0 -1.52218,0.06729 -2.30891,0.201538 -0.75252,0.100688 -1.47079,0.319128 -2.1549,0.65474 -0.68412,0.302049 -1.31711,0.704775 -1.8986,1.208195 -0.58149,0.503421 -1.06034,1.09042 -1.4366,1.76165 -0.37627,0.637666 -0.66707,1.325609 -0.8723,2.063956 -0.17103,0.73835 -0.25631,1.477024 -0.25631,2.215358 v 0.35244 h 6.66987 v -0.15141 c 0,-0.335607 0.0339,-0.671037 0.10232,-1.006654 0.10262,-0.335613 0.2398,-0.637398 0.41083,-0.905888 0.17102,-0.302049 0.41046,-0.520495 0.7183,-0.654741 0.34206,-0.167808 0.68425,-0.251664 1.0263,-0.251664 0.37626,0 0.71791,0.100942 1.02577,0.302307 0.34206,0.201372 0.59895,0.469507 0.76998,0.805119 0.17103,0.335611 0.29075,0.688127 0.35915,1.057294 0.0684,0.36918 0.10232,0.738247 0.10232,1.107424 v 1.611261 h -1.33377 c -0.85514,0 -1.7106,0.0668 -2.56573,0.20102 -0.85514,0.10068 -1.69313,0.319127 -2.51406,0.654737 -0.78672,0.33562 -1.52195,0.78855 -2.20607,1.35909 -0.68412,0.53699 -1.24877,1.17471 -1.69343,1.91306 -0.44468,0.70479 -0.75243,1.47659 -0.92345,2.31563 -0.17103,0.83904 -0.25633,1.69468 -0.25633,2.56728 0,0.60411 0.0339,1.20818 0.10233,1.81229 0.10262,0.6041 0.2398,1.19163 0.41082,1.76217 0.20524,0.57055 0.47856,1.12443 0.82063,1.6614 0.37626,0.50343 0.80374,0.9398 1.2826,1.30896 0.47889,0.36918 1.02659,0.63731 1.64229,0.80512 0.61568,0.16781 1.23122,0.25167 1.84692,0.25167 0.6157,0 1.21426,-0.10042 1.79575,-0.30179 0.5815,-0.16781 1.11173,-0.43647 1.5906,-0.80564 0.47888,-0.40273 0.87243,-0.85566 1.18029,-1.35909 0.34204,-0.50341 0.61538,-1.04021 0.82062,-1.61075 v 3.67471 h 6.6704 V 98.046202 c 0,-0.805464 -0.0689,-1.593831 -0.20567,-2.365739 -0.13682,-0.771912 -0.3932,-1.510583 -0.76947,-2.215369 -0.34206,-0.704786 -0.80397,-1.325436 -1.38545,-1.862419 -0.5815,-0.57054 -1.23144,-1.02399 -1.94975,-1.359607 -0.6841,-0.369175 -1.4363,-0.620747 -2.25722,-0.754992 -0.78673,-0.134246 -1.57333,-0.201538 -2.36007,-0.201538 z m 39.19915,0 c -0.85514,0 -1.72704,0.08437 -2.61637,0.252181 -0.85514,0.167808 -1.65922,0.469594 -2.41174,0.905888 -0.75252,0.4363 -1.41941,0.990174 -2.00091,1.661397 -0.54728,0.671229 -0.99222,1.392814 -1.33429,2.164726 -0.34205,0.771904 -0.58147,1.59392 -0.7183,2.466511 -0.13683,0.839034 -0.20516,1.678118 -0.20516,2.517145 v 7.048154 c 0,0.83904 0.0514,1.69468 0.154,2.56728 0.13682,0.83904 0.37623,1.64449 0.7183,2.41639 0.37626,0.77192 0.83817,1.49349 1.38545,2.16473 0.5815,0.67122 1.24839,1.22509 2.00091,1.66139 0.75252,0.4363 1.5566,0.73808 2.41174,0.90589 0.85514,0.16781 1.71008,0.25167 2.56521,0.25167 0.78673,0 1.57334,-0.0668 2.36007,-0.20103 0.78672,-0.10068 1.53943,-0.31912 2.25774,-0.65474 0.71832,-0.33561 1.36826,-0.7549 1.94975,-1.25832 0.6157,-0.53698 1.11151,-1.14107 1.48777,-1.81229 0.41047,-0.67123 0.70127,-1.37625 0.8723,-2.1146 0.20523,-0.77191 0.30799,-1.54371 0.30799,-2.31562 v -0.10077 h -6.6704 v 0.0506 c 0,0.36918 -0.0509,0.73825 -0.15348,1.10743 -0.10261,0.33561 -0.2737,0.65447 -0.51314,0.95653 -0.20524,0.26849 -0.47909,0.48642 -0.82114,0.65422 -0.34205,0.13425 -0.7012,0.20154 -1.07746,0.20154 -0.47888,0 -0.90635,-0.16771 -1.2826,-0.50333 -0.37627,-0.3356 -0.65012,-0.72176 -0.82114,-1.15807 -0.17103,-0.43629 -0.29074,-0.88922 -0.35915,-1.35909 -0.0684,-0.50342 -0.10232,-0.98999 -0.10232,-1.45985 v -0.80564 h 11.90315 v -6.242514 c 0,-0.839027 -0.0683,-1.678111 -0.20516,-2.517145 -0.13682,-0.872591 -0.37624,-1.694607 -0.7183,-2.466511 -0.34205,-0.771912 -0.80396,-1.493497 -1.38545,-2.164726 -0.54729,-0.671223 -1.19671,-1.225097 -1.94923,-1.661397 -0.75252,-0.436294 -1.57355,-0.73808 -2.4629,-0.905888 -0.85513,-0.167809 -1.71059,-0.252181 -2.56574,-0.252181 z m 21.3956,0 c -1.06038,0 -2.12084,0.134585 -3.1812,0.403076 -1.06038,0.234929 -2.0006,0.687862 -2.82154,1.35909 -0.82093,0.637666 -1.45392,1.459676 -1.89859,2.466516 -0.41046,0.973278 -0.61546,1.980084 -0.61546,3.020491 0,0.604097 0.0509,1.191614 0.15347,1.762151 0.13682,0.536987 0.32539,1.073774 0.56483,1.610751 0.23944,0.536977 0.52973,1.040637 0.87178,1.510497 0.37626,0.46986 0.76982,0.90623 1.18029,1.30896 0.41046,0.36918 0.8554,0.72169 1.33428,1.0573 0.51308,0.33561 1.02584,0.6374 1.53893,0.90589 0.51308,0.2685 1.04331,0.5035 1.5906,0.70487 0.58149,0.20137 1.11172,0.45293 1.5906,0.75499 0.51309,0.30206 0.94056,0.70479 1.28261,1.2082 0.37627,0.46987 0.56431,0.99009 0.56431,1.56063 0,0.2685 -0.0683,0.53714 -0.20516,0.80563 -0.10262,0.26849 -0.27371,0.48642 -0.51315,0.65423 -0.20522,0.16776 -0.44465,0.28526 -0.7183,0.35243 -0.27365,0.0336 -0.54697,0.0506 -0.82062,0.0506 -0.30785,0 -0.61561,-0.0502 -0.92346,-0.15089 -0.30784,-0.10068 -0.56473,-0.26892 -0.76998,-0.50385 -0.17102,-0.23493 -0.3077,-0.4865 -0.41031,-0.75499 -0.10262,-0.30207 -0.15399,-0.62092 -0.15399,-0.95653 v -0.10077 h -6.66988 v 0.40308 c 0,0.7048 0.0853,1.42637 0.25631,2.16472 0.20524,0.70479 0.51299,1.3591 0.92346,1.96319 0.41047,0.60411 0.90679,1.14089 1.48828,1.61075 0.5815,0.4363 1.21396,0.8059 1.89808,1.10795 0.68412,0.26849 1.38544,0.45277 2.10375,0.55345 0.75252,0.10069 1.50522,0.1509 2.25774,0.1509 0.71833,0 1.4366,-0.0502 2.15491,-0.1509 0.75252,-0.10068 1.47079,-0.26841 2.1549,-0.50333 0.68411,-0.26849 1.3171,-0.621 1.8986,-1.0573 0.58148,-0.43629 1.07729,-0.93995 1.48776,-1.5105 0.41047,-0.60411 0.71822,-1.2584 0.92346,-1.96319 0.20522,-0.70479 0.30799,-1.40929 0.30799,-2.11408 0,-0.57055 -0.0683,-1.14149 -0.20516,-1.71204 -0.10261,-0.57054 -0.29117,-1.10734 -0.56482,-1.61076 -0.23944,-0.53699 -0.52973,-1.04065 -0.87178,-1.5105 -0.34205,-0.46986 -0.73562,-0.90571 -1.18029,-1.30845 -0.41047,-0.40273 -0.85541,-0.75524 -1.33429,-1.0573 -0.47887,-0.33561 -0.99162,-0.63791 -1.53892,-0.9064 -0.51307,-0.26849 -1.04331,-0.5035 -1.5906,-0.70487 -0.54729,-0.201357 -1.07752,-0.452937 -1.5906,-0.754984 -0.47888,-0.30205 -0.90635,-0.687687 -1.28261,-1.157544 -0.34205,-0.503417 -0.51315,-1.040724 -0.51315,-1.611261 0,-0.2685 0.0344,-0.520067 0.10284,-0.754997 0.10261,-0.234927 0.23928,-0.436288 0.41031,-0.604097 0.17103,-0.201368 0.37603,-0.335436 0.61547,-0.40256 0.23944,-0.06712 0.47886,-0.100769 0.7183,-0.100769 0.27365,0 0.53054,0.06677 0.76998,0.201021 0.27363,0.134246 0.47864,0.319042 0.61546,0.553972 0.17103,0.234926 0.29074,0.4865 0.35915,0.754992 0.0684,0.268488 0.10284,0.553715 0.10284,0.855755 v 0.10077 h 6.66988 v -0.40256 c 0,-1.040397 -0.205,-2.064284 -0.61547,-3.071124 -0.41045,-1.040397 -1.02649,-1.896056 -1.84743,-2.567285 -0.82093,-0.704786 -1.76168,-1.191367 -2.82205,-1.459859 -1.06037,-0.302053 -2.13778,-0.453202 -3.23236,-0.453202 z m -138.78895,5.48752 c 0.47888,0 0.90635,0.167717 1.28261,0.503329 0.41047,0.335617 0.70127,0.721774 0.8723,1.158064 0.17102,0.436297 0.29073,0.906317 0.35915,1.409734 0.0684,0.469847 0.10284,0.939354 0.10284,1.409201 v 7.048154 c 0,0.46986 -0.0344,0.95643 -0.10284,1.45985 -0.0684,0.46987 -0.18813,0.9228 -0.35915,1.35909 -0.17103,0.43631 -0.46183,0.82247 -0.8723,1.15807 -0.37626,0.33562 -0.80373,0.50333 -1.28261,0.50333 -0.47888,0 -0.9233,-0.16771 -1.33377,-0.50333 -0.37626,-0.3356 -0.6501,-0.72176 -0.82113,-1.15807 -0.17102,-0.43629 -0.29074,-0.88922 -0.35916,-1.35909 -0.0684,-0.50342 -0.10283,-0.98999 -0.10283,-1.45985 v -7.048154 c 0,-0.469847 0.0344,-0.939354 0.10283,-1.409201 0.0684,-0.503417 0.18814,-0.973437 0.35916,-1.409734 0.17103,-0.43629 0.44487,-0.822447 0.82113,-1.158064 0.41047,-0.335612 0.85489,-0.503329 1.33377,-0.503329 z m 42.68835,0 c 0.47888,0 0.90688,0.167717 1.28313,0.503329 0.41047,0.335617 0.70128,0.721774 0.8723,1.158064 0.17102,0.436297 0.29075,0.906317 0.35915,1.409734 0.0684,0.469847 0.10233,0.939354 0.10233,1.409201 v 7.048154 c 0,0.46986 -0.0339,0.95643 -0.10233,1.45985 -0.0684,0.46987 -0.18813,0.9228 -0.35915,1.35909 -0.17102,0.43631 -0.46183,0.82247 -0.8723,1.15807 -0.37625,0.33562 -0.80425,0.50333 -1.28312,0.50333 -0.47888,0 -0.92329,-0.16771 -1.33377,-0.50333 -0.37626,-0.3356 -0.65011,-0.72176 -0.82114,-1.15807 -0.17103,-0.43629 -0.29075,-0.88922 -0.35915,-1.35909 -0.0684,-0.50342 -0.10232,-0.98999 -0.10232,-1.45985 v -7.048154 c 0,-0.469847 0.0339,-0.939354 0.10232,-1.409201 0.0684,-0.503417 0.18812,-0.973437 0.35915,-1.409734 0.17102,-0.43629 0.44488,-0.822447 0.82114,-1.158064 0.41048,-0.335612 0.85489,-0.503329 1.33376,-0.503329 z m 74.705,0 c 0.47889,0 0.90687,0.167717 1.28313,0.503329 0.41045,0.335617 0.70074,0.721774 0.87178,1.158064 0.17103,0.436297 0.29075,0.906317 0.35915,1.409734 0.0684,0.469847 0.10284,0.939354 0.10284,1.409201 v 0.805634 h -5.23327 v -0.805634 c 0,-0.469847 0.0339,-0.939354 0.10233,-1.409201 0.0684,-0.503417 0.18812,-0.973437 0.35915,-1.409734 0.17102,-0.43629 0.44486,-0.822447 0.82114,-1.158064 0.41046,-0.335612 0.85489,-0.503329 1.33375,-0.503329 z m -38.2757,10.370412 h 1.33377 v 2.1146 c 0,0.40274 -0.0339,0.80545 -0.10232,1.20819 -0.0684,0.36917 -0.20558,0.73825 -0.41082,1.10743 -0.17102,0.36918 -0.42741,0.67095 -0.76947,0.90588 -0.34205,0.20136 -0.71814,0.30231 -1.12861,0.30231 -0.34206,0 -0.68425,-0.0502 -1.02629,-0.15089 -0.30786,-0.13425 -0.5817,-0.33561 -0.82114,-0.6041 -0.20523,-0.26849 -0.35885,-0.57079 -0.46147,-0.90641 -0.0684,-0.33561 -0.10284,-0.67103 -0.10284,-1.00665 0,-0.4363 0.0858,-0.8561 0.25683,-1.25884 0.17103,-0.4363 0.42741,-0.78829 0.76947,-1.05678 0.34204,-0.2685 0.71814,-0.43673 1.12861,-0.50385 0.44467,-0.1007 0.88961,-0.15089 1.33428,-0.15089 z" />
    <path
       style="font-style:italic;font-size:23.8024px;font-family:RomeosevkaProp;-inkscape-font-specification:'RomeosevkaProp Italic';fill:#e17100;stroke-width:30.9547;stroke-linecap:round;stroke-linejoin:bevel;fill-opacity:1"
       d="m 176.39301,138.22145 4.68907,-17.49476 h 3.59417 q 0.69027,0 1.33293,0.14281 0.64266,0.11901 1.14252,0.45225 0.49985,0.33323 0.83308,0.85688 0.35704,0.49985 0.47605,1.11872 0.14281,0.61886 0.0714,1.30913 -0.0714,0.69027 -0.23802,1.38054 -0.14281,0.52365 -0.40464,1.0473 -0.23802,0.52366 -0.66647,0.9759 -0.40464,0.42844 -0.92829,0.76168 -0.49985,0.30943 -1.04731,0.49985 0.57126,0.28563 0.9759,0.78548 0.42844,0.47605 0.61886,1.11871 0.19042,0.61886 0.14282,1.35674 -0.0238,0.71407 -0.21422,1.42814 -0.16662,0.61886 -0.45225,1.21392 -0.28563,0.59506 -0.73787,1.11872 -0.45225,0.52365 -1.04731,0.90449 -0.57126,0.38084 -1.21392,0.61886 -0.61886,0.23802 -1.26153,0.33323 -0.61886,0.0714 -1.21392,0.0714 z m 4.54626,-9.9018 h 2.21362 q 0.52365,0 1.09491,-0.16661 0.57126,-0.16662 1.04731,-0.54746 0.47605,-0.40464 0.76167,-0.92829 0.28563,-0.54746 0.42845,-1.07111 0.16661,-0.59506 0.19042,-1.19012 0.0238,-0.59506 -0.21422,-1.07111 -0.21423,-0.47605 -0.71408,-0.71407 -0.49985,-0.23803 -1.09491,-0.23803 h -2.11841 z m -0.0952,8.23563 q 0.42844,0 0.85689,-0.0476 0.45224,-0.0714 0.88068,-0.23803 0.45225,-0.16661 0.85689,-0.45224 0.40464,-0.28563 0.71407,-0.64267 0.30943,-0.38083 0.49985,-0.80928 0.21422,-0.42844 0.33324,-0.85688 0.11901,-0.45225 0.14281,-0.9045 0.0476,-0.47604 -0.0476,-0.88068 -0.0714,-0.42845 -0.30943,-0.76168 -0.21423,-0.35704 -0.57126,-0.57126 -0.33324,-0.23802 -0.78548,-0.30943 -0.42844,-0.0952 -0.88069,-0.0952 h -2.0232 l -1.76138,6.56946 z m 8.40225,1.66617 3.30853,-12.37725 h 1.90419 l -0.69027,2.57066 q 0.38084,-0.61886 0.88069,-1.14251 0.52365,-0.54746 1.16632,-0.90449 0.64266,-0.38084 1.30913,-0.54746 0.66647,-0.16662 1.30913,-0.16662 v 1.85659 q -0.52365,0 -1.0711,0.0714 -0.54746,0.0476 -1.09492,0.21422 -0.54745,0.16662 -1.0711,0.45224 -0.52366,0.28563 -0.9521,0.71408 -0.42844,0.40464 -0.71407,0.92829 -0.28563,0.49985 -0.42844,1.0235 l -1.9518,7.30734 z m 14.09101,0.19042 q -0.73787,0 -1.45194,-0.14281 -0.69027,-0.14282 -1.23773,-0.49985 -0.54745,-0.35704 -0.90449,-0.9283 -0.35703,-0.57126 -0.47605,-1.23772 -0.11901,-0.66647 -0.0476,-1.40434 0.0714,-0.73788 0.28563,-1.47575 l 0.76167,-2.85629 q 0.14282,-0.57126 0.38084,-1.11871 0.26183,-0.57126 0.64267,-1.07111 0.38084,-0.49985 0.88069,-0.90449 0.52365,-0.40464 1.09491,-0.66647 0.57125,-0.26183 1.14251,-0.35704 0.59506,-0.0952 1.16632,-0.0952 0.61886,0 1.19012,0.0952 0.59506,0.0714 1.11871,0.28563 0.52366,0.21422 0.90449,0.59506 0.40464,0.35704 0.61887,0.85689 0.21422,0.49985 0.26182,1.09491 0.0476,0.57126 -0.11901,1.19012 -0.14281,0.52365 -0.45225,1.0473 -0.30943,0.49985 -0.76167,0.9045 -0.45225,0.40464 -0.9759,0.69027 -0.52365,0.28562 -1.07111,0.45224 -0.52365,0.14282 -1.07111,0.19042 -0.52365,0.0476 -1.0473,0.0476 -0.73788,0 -1.45195,-0.0714 -0.69027,-0.0952 -1.33293,-0.23803 l -0.0952,0.35704 q -0.11901,0.45225 -0.19042,0.90449 -0.0476,0.45225 0,0.88069 0.0714,0.42844 0.26182,0.78548 0.21423,0.35703 0.54746,0.59506 0.33323,0.23802 0.76168,0.33323 0.42844,0.0952 0.90449,0.0952 0.47605,0 0.9759,-0.11901 0.49985,-0.14281 0.95209,-0.42844 0.47605,-0.30943 0.85689,-0.71408 0.38084,-0.42844 0.66647,-0.88068 l 1.42814,0.73787 q -0.38084,0.66647 -0.9759,1.28533 -0.57126,0.59506 -1.26153,1.0235 -0.66646,0.40464 -1.42814,0.57126 -0.73787,0.19042 -1.45195,0.19042 z m 0.80929,-6.9741 q 0.49985,0 1.0473,-0.0476 0.54746,-0.0714 1.04731,-0.30943 0.52365,-0.23802 0.92829,-0.69027 0.42844,-0.45224 0.57126,-0.9759 0.11901,-0.47605 0,-0.90449 -0.11901,-0.45224 -0.45225,-0.71407 -0.33323,-0.28563 -0.78548,-0.38084 -0.42844,-0.0952 -0.90449,-0.0952 -0.38084,0 -0.78548,0.0714 -0.40464,0.0714 -0.80928,0.28563 -0.38084,0.19042 -0.71407,0.47605 -0.30943,0.28562 -0.57126,0.64266 -0.23802,0.35704 -0.40464,0.73787 -0.16662,0.38084 -0.26183,0.76168 l -0.23802,0.88069 q 0.57126,0.11901 1.14252,0.19042 0.57125,0.0714 1.19012,0.0714 z m 9.9494,6.9741 q -0.66647,0 -1.28533,-0.19042 -0.59506,-0.21422 -0.9997,-0.64266 -0.38084,-0.42845 -0.57126,-0.9997 -0.16662,-0.59506 -0.21422,-1.21393 -0.0238,-0.64266 0.0714,-1.30913 0.11901,-0.66647 0.30943,-1.33293 l 0.76167,-2.85629 q 0.14282,-0.52365 0.33324,-1.02351 0.19042,-0.49985 0.47605,-0.97589 0.30943,-0.47605 0.69026,-0.90449 0.38084,-0.42845 0.85689,-0.73788 0.49985,-0.30943 1.0235,-0.42844 0.52366,-0.14282 1.04731,-0.14282 0.64266,0 1.23772,0.19042 0.59506,0.19042 0.9759,0.61886 0.40464,0.40465 0.59506,0.9759 0.21422,0.54746 0.23803,1.19012 l 0.73787,-2.78488 h 1.90419 l -2.76107,10.30644 q -0.0238,0.11901 -0.0238,0.23803 0,0.11901 0.0476,0.21422 0.0714,0.0714 0.19042,0.11901 0.11901,0.0238 0.23802,0.0238 h 0.47605 v 1.66617 h -0.92829 q -0.45225,0 -0.88069,-0.11901 -0.40464,-0.0952 -0.69027,-0.35704 -0.28563,-0.26182 -0.40464,-0.66647 -0.0952,-0.40464 0,-0.85688 -0.28563,0.45224 -0.66647,0.83308 -0.38084,0.38084 -0.85689,0.66647 -0.47605,0.26183 -0.9759,0.38084 -0.47604,0.11901 -0.95209,0.11901 z m 0.76167,-1.66617 q 0.54746,0 1.09492,-0.14281 0.54745,-0.16662 1.0235,-0.54746 0.47605,-0.38084 0.76168,-0.88069 0.28562,-0.52365 0.42844,-1.0473 l 0.76168,-2.85629 q 0.11901,-0.45225 0.19041,-0.88069 0.0952,-0.45224 0.0952,-0.88069 0,-0.42844 -0.0952,-0.83308 -0.0952,-0.40464 -0.33323,-0.71407 -0.21422,-0.33324 -0.59506,-0.47605 -0.38084,-0.16662 -0.80928,-0.16662 -0.57126,0 -1.16632,0.21422 -0.59506,0.21422 -1.07111,0.64267 -0.47604,0.42844 -0.76167,0.9997 -0.26183,0.54745 -0.42845,1.11871 l -0.76167,2.85629 q -0.11902,0.40464 -0.19042,0.83308 -0.0476,0.42845 -0.0476,0.83309 0.0238,0.38084 0.14282,0.76167 0.11901,0.35704 0.33323,0.64267 0.23802,0.26183 0.61886,0.40464 0.40464,0.11901 0.80928,0.11901 z m 14.09102,1.47575 -2.83248,-4.80808 q -0.14282,-0.0238 -0.26183,-0.0714 -0.11901,-0.0476 -0.21422,-0.0952 l -1.33293,4.9747 h -1.9042 l 4.68908,-17.49476 h 1.90419 l -2.21362,8.21182 q 0.30943,-0.61886 0.71407,-1.19012 0.42844,-0.57125 0.95209,-1.0473 0.52366,-0.49985 1.16632,-0.76168 0.66647,-0.28563 1.28533,-0.28563 0.64267,0 1.16632,0.23803 0.54745,0.21422 0.80928,0.71407 0.28563,0.47605 0.26183,1.11871 -0.0238,0.61886 -0.19042,1.23773 -0.21422,0.78548 -0.64267,1.54715 -0.42844,0.73788 -1.09491,1.33294 -0.66646,0.57126 -1.45194,0.92829 -0.78548,0.33323 -1.61857,0.54746 l 2.9039,4.90329 z m -1.88038,-6.28383 q 0.40464,0 0.80928,-0.0952 0.42844,-0.11901 0.83308,-0.26183 0.40464,-0.14281 0.78548,-0.38084 0.40464,-0.26182 0.69027,-0.59506 0.30943,-0.33323 0.49985,-0.71407 0.21422,-0.40464 0.33323,-0.78548 0.0714,-0.33323 0.0952,-0.64266 0.0238,-0.30943 -0.0714,-0.57126 -0.0952,-0.28563 -0.33324,-0.42844 -0.23802,-0.14282 -0.54745,-0.14282 -0.49985,0 -1.02351,0.19042 -0.49985,0.19042 -0.92829,0.54746 -0.42844,0.35703 -0.76168,0.80928 -0.33323,0.42844 -0.59506,0.90449 -0.23802,0.45224 -0.45224,0.92829 -0.19042,0.47605 -0.33324,0.9521 0.21423,0.14281 0.47605,0.21422 0.26183,0.0714 0.52366,0.0714 z m 11.66317,6.47425 q -0.71407,0 -1.33293,-0.23802 -0.61887,-0.23803 -0.9521,-0.76168 -0.30943,-0.52365 -0.30943,-1.21392 0,-0.69027 0.19042,-1.38054 l 2.40404,-8.97351 h 1.90419 l -2.52305,9.40195 q -0.0714,0.28563 -0.0714,0.59506 0,0.28563 0.14282,0.49985 0.16661,0.21422 0.42844,0.30943 0.26183,0.0952 0.57126,0.0952 0.23802,0 0.47604,-0.0476 0.26183,-0.0714 0.52366,-0.16662 l -0.45225,1.66617 q -0.26182,0.0952 -0.52365,0.14281 -0.23803,0.0714 -0.47605,0.0714 z m 1.928,-14.66228 q -0.38084,0 -0.73788,-0.14281 -0.33323,-0.14282 -0.54745,-0.42845 -0.19042,-0.28563 -0.23803,-0.66646 -0.0238,-0.38084 0.0714,-0.76168 0.0714,-0.21422 0.21422,-0.40464 0.14281,-0.21422 0.33323,-0.33323 0.21423,-0.14282 0.42845,-0.19042 0.23802,-0.0476 0.45224,-0.0476 0.38084,0 0.71407,0.16662 0.35704,0.14281 0.52366,0.42844 0.19042,0.28563 0.23802,0.66647 0.0714,0.38084 -0.0238,0.76168 -0.0714,0.21422 -0.21422,0.42844 -0.14282,0.19042 -0.35704,0.33323 -0.19042,0.11901 -0.42844,0.16662 -0.21422,0.0238 -0.42844,0.0238 z m 11.52037,14.66228 h -0.9283 q -0.47605,0 -0.92829,-0.11901 -0.45225,-0.11901 -0.73788,-0.42845 -0.28562,-0.30943 -0.33323,-0.76167 -0.0238,-0.47605 0.0952,-0.9521 l 1.40434,-5.23653 q 0.11901,-0.40464 0.19042,-0.80928 0.0714,-0.42844 0.0476,-0.80928 0,-0.40464 -0.11902,-0.76168 -0.0952,-0.38083 -0.30943,-0.66646 -0.21422,-0.28563 -0.59506,-0.40464 -0.35703,-0.14282 -0.76167,-0.14282 -0.52366,0 -1.07111,0.16662 -0.54746,0.16661 -1.02351,0.54745 -0.45224,0.38084 -0.73787,0.88069 -0.26183,0.49985 -0.40464,1.02351 l -2.21362,8.28323 h -1.9042 l 3.30854,-12.37725 h 1.90419 l -0.47605,1.76138 q 0.28563,-0.42844 0.66647,-0.80928 0.38084,-0.38084 0.83308,-0.64267 0.45225,-0.26182 0.9283,-0.38083 0.47604,-0.11902 0.92829,-0.11902 0.66647,0 1.26153,0.21422 0.59506,0.19042 0.9759,0.64267 0.38083,0.42844 0.54745,1.0235 0.16662,0.57126 0.19042,1.21393 0.0238,0.61886 -0.0952,1.28533 -0.0952,0.66646 -0.28563,1.30913 l -1.28533,4.80808 q -0.0238,0.11901 -0.0238,0.23803 0,0.11901 0.0476,0.21422 0.0714,0.0714 0.19042,0.11901 0.11902,0.0238 0.23803,0.0238 h 0.47605 z m 4.85568,5.11752 q -0.54745,0 -1.09491,-0.0714 -0.52365,-0.0476 -0.9997,-0.21422 -0.47604,-0.14282 -0.88069,-0.42845 -0.40464,-0.26182 -0.64266,-0.69027 -0.23802,-0.40464 -0.30943,-0.92829 -0.0714,-0.52365 0.0714,-1.07111 h 1.85658 q -0.11901,0.45225 0.0476,0.80928 0.19042,0.38084 0.52365,0.57126 0.35704,0.21422 0.78548,0.28563 0.42844,0.0714 0.88069,0.0714 0.54745,0 1.11871,-0.23803 0.57126,-0.21422 0.9997,-0.66646 0.45225,-0.42845 0.71407,-0.9759 0.26183,-0.54746 0.40465,-1.09491 l 0.66646,-2.45165 q -0.28563,0.42844 -0.69027,0.83308 -0.38084,0.38084 -0.85688,0.64267 -0.45225,0.26183 -0.9521,0.38084 -0.47605,0.11901 -0.9521,0.11901 -0.66646,0 -1.28533,-0.19042 -0.59506,-0.21422 -0.9997,-0.64266 -0.38083,-0.42845 -0.57125,-0.9997 -0.16662,-0.59506 -0.21423,-1.21393 -0.0238,-0.64266 0.0714,-1.30913 0.11901,-0.66647 0.30943,-1.33293 l 0.76168,-2.85629 q 0.14281,-0.57126 0.38084,-1.11871 0.26182,-0.57126 0.64266,-1.07111 0.38084,-0.49985 0.88069,-0.90449 0.52365,-0.40464 1.09491,-0.66647 0.57126,-0.26183 1.14252,-0.35704 0.59506,-0.0952 1.16632,-0.0952 1.28532,0 2.45164,0.33324 1.16632,0.30943 2.04701,1.0235 l -3.28473,12.30584 q -0.16662,0.57126 -0.40464,1.11871 -0.23803,0.57126 -0.64267,1.07111 -0.38084,0.49985 -0.88069,0.90449 -0.49985,0.40464 -1.0711,0.66647 -0.57126,0.26183 -1.14252,0.35704 -0.57126,0.0952 -1.14252,0.0952 z m 1.45195,-6.78369 q 0.54746,0 1.09491,-0.14281 0.54746,-0.16662 1.0235,-0.54746 0.47605,-0.38084 0.76168,-0.88069 0.28563,-0.52365 0.42844,-1.0473 l 1.71378,-6.40285 q -0.52365,-0.23802 -1.14252,-0.30943 -0.59506,-0.0952 -1.23772,-0.0952 -0.38084,0 -0.78548,0.0714 -0.40464,0.0714 -0.80928,0.28563 -0.38084,0.19042 -0.71408,0.47605 -0.30943,0.28562 -0.57125,0.64266 -0.23803,0.35704 -0.40464,0.73787 -0.16662,0.38084 -0.26183,0.76168 l -0.76168,2.85629 q -0.11901,0.40464 -0.19042,0.83308 -0.0476,0.42845 -0.0476,0.83309 0.0238,0.38084 0.14281,0.76167 0.11902,0.35704 0.33324,0.64267 0.23802,0.26183 0.61886,0.40464 0.40464,0.11901 0.80928,0.11901 z m 20.68428,1.66617 q -0.61886,0 -1.19012,-0.14281 -0.57126,-0.14282 -0.9997,-0.47605 -0.40464,-0.35704 -0.66647,-0.85689 -0.23802,-0.49985 -0.30943,-1.07111 -0.0476,-0.57125 0.0238,-1.19012 0.0952,-0.61886 0.26183,-1.23772 l 1.57096,-5.9268 h -2.04701 l 0.0238,-1.66617 h 2.47545 l 1.38054,-5.11751 h 1.90419 l -1.38053,5.11751 h 3.95119 l -0.0238,1.66617 h -4.37964 l -1.68997,6.35524 q -0.0952,0.33324 -0.14281,0.66647 -0.0476,0.33323 -0.0476,0.66647 0,0.30943 0.0952,0.61886 0.0952,0.28563 0.28563,0.49985 0.19042,0.21422 0.49985,0.33323 0.30943,0.0952 0.64266,0.0952 0.30944,0 0.61887,-0.0952 0.30943,-0.11901 0.59506,-0.33323 0.28563,-0.21422 0.49985,-0.47605 0.21422,-0.28563 0.38084,-0.57126 0.16661,-0.28563 0.30943,-0.59506 0.14281,-0.30943 0.26182,-0.61886 l 1.66617,0.45225 q -0.19042,0.47604 -0.42844,0.95209 -0.23803,0.47605 -0.57126,0.9283 -0.30943,0.45224 -0.71407,0.85688 -0.40464,0.38084 -0.88069,0.66647 -0.47605,0.26183 -0.9759,0.38084 -0.49985,0.11901 -0.9997,0.11901 z m 15.66198,0 h -0.9283 q -0.47604,0 -0.92829,-0.11901 -0.45224,-0.11901 -0.73787,-0.42845 -0.28563,-0.30943 -0.33324,-0.76167 -0.0238,-0.47605 0.0952,-0.9521 l 1.40434,-5.23653 q 0.11902,-0.40464 0.19042,-0.80928 0.0714,-0.42844 0.0476,-0.80928 0,-0.40464 -0.11901,-0.76168 -0.0952,-0.38083 -0.30943,-0.66646 -0.21423,-0.28563 -0.59506,-0.40464 -0.35704,-0.14282 -0.76168,-0.14282 -0.52365,0 -1.07111,0.16662 -0.54745,0.16661 -1.0235,0.54745 -0.45225,0.38084 -0.73788,0.88069 -0.26182,0.49985 -0.40464,1.02351 l -2.21362,8.28323 h -1.90419 l 4.68907,-17.49476 h 1.90419 l -1.85659,6.87889 q 0.28563,-0.42844 0.66647,-0.80928 0.38084,-0.38084 0.83309,-0.64267 0.45224,-0.26182 0.92829,-0.38083 0.47605,-0.11902 0.92829,-0.11902 0.66647,0 1.26153,0.21422 0.59506,0.19042 0.9759,0.64267 0.38084,0.42844 0.54745,1.0235 0.16662,0.57126 0.19042,1.21393 0.0238,0.61886 -0.0952,1.28533 -0.0952,0.66646 -0.28563,1.30913 l -1.28533,4.80808 q -0.0238,0.11901 -0.0238,0.23803 0,0.11901 0.0476,0.21422 0.0714,0.0714 0.19042,0.11901 0.11901,0.0238 0.23802,0.0238 h 0.47605 z m 6.68847,0 q -0.73787,0 -1.45194,-0.14281 -0.69027,-0.14282 -1.23773,-0.49985 -0.54745,-0.35704 -0.90449,-0.9283 -0.35704,-0.57126 -0.47605,-1.23772 -0.11901,-0.66647 -0.0476,-1.40434 0.0714,-0.73788 0.28563,-1.47575 l 0.76167,-2.85629 q 0.14282,-0.57126 0.38084,-1.11871 0.26183,-0.57126 0.64267,-1.07111 0.38083,-0.49985 0.88068,-0.90449 0.52366,-0.40464 1.09492,-0.66647 0.57125,-0.26183 1.14251,-0.35704 0.59506,-0.0952 1.16632,-0.0952 0.61886,0 1.19012,0.0952 0.59506,0.0714 1.11871,0.28563 0.52365,0.21422 0.90449,0.59506 0.40464,0.35704 0.61886,0.85689 0.21423,0.49985 0.26183,1.09491 0.0476,0.57126 -0.11901,1.19012 -0.14282,0.52365 -0.45225,1.0473 -0.30943,0.49985 -0.76167,0.9045 -0.45225,0.40464 -0.9759,0.69027 -0.52365,0.28562 -1.07111,0.45224 -0.52365,0.14282 -1.07111,0.19042 -0.52365,0.0476 -1.0473,0.0476 -0.73788,0 -1.45195,-0.0714 -0.69027,-0.0952 -1.33293,-0.23803 l -0.0952,0.35704 q -0.11902,0.45225 -0.19042,0.90449 -0.0476,0.45225 0,0.88069 0.0714,0.42844 0.26182,0.78548 0.21422,0.35703 0.54746,0.59506 0.33323,0.23802 0.76168,0.33323 0.42844,0.0952 0.90449,0.0952 0.47604,0 0.97589,-0.11901 0.49986,-0.14281 0.9521,-0.42844 0.47605,-0.30943 0.85689,-0.71408 0.38084,-0.42844 0.66646,-0.88068 l 1.42815,0.73787 q -0.38084,0.66647 -0.9759,1.28533 -0.57126,0.59506 -1.26153,1.0235 -0.66646,0.40464 -1.42814,0.57126 -0.73788,0.19042 -1.45195,0.19042 z m 0.80928,-6.9741 q 0.49985,0 1.04731,-0.0476 0.54745,-0.0714 1.04731,-0.30943 0.52365,-0.23802 0.92829,-0.69027 0.42844,-0.45224 0.57126,-0.9759 0.11901,-0.47605 0,-0.90449 -0.11902,-0.45224 -0.45225,-0.71407 -0.33323,-0.28563 -0.78548,-0.38084 -0.42844,-0.0952 -0.90449,-0.0952 -0.38084,0 -0.78548,0.0714 -0.40464,0.0714 -0.80928,0.28563 -0.38084,0.19042 -0.71407,0.47605 -0.30943,0.28562 -0.57126,0.64266 -0.23802,0.35704 -0.40464,0.73787 -0.16662,0.38084 -0.26183,0.76168 l -0.23802,0.88069 q 0.57126,0.11901 1.14251,0.19042 0.57126,0.0714 1.19012,0.0714 z m 29.20554,6.9741 h -0.92829 q -0.47605,0 -0.9283,-0.11901 -0.45224,-0.11901 -0.73787,-0.42845 -0.28563,-0.30943 -0.33323,-0.76167 -0.0238,-0.47605 0.0952,-0.9521 l 1.49955,-5.54596 q 0.0952,-0.38084 0.14281,-0.73787 0.0714,-0.38084 0.0714,-0.73788 0.0238,-0.38083 -0.0952,-0.71407 -0.0952,-0.33323 -0.30943,-0.59506 -0.19042,-0.26182 -0.52365,-0.38084 -0.30944,-0.11901 -0.69027,-0.11901 -0.52366,0 -1.07111,0.23803 -0.54746,0.23802 -0.9521,0.66646 -0.38084,0.42845 -0.64266,0.9521 -0.23803,0.49985 -0.38084,1.0235 l -2.14222,8.02141 h -1.90419 l 2.04701,-7.61677 q 0.0952,-0.38084 0.14281,-0.73787 0.0714,-0.38084 0.0714,-0.73788 0,-0.38083 -0.0952,-0.71407 -0.0952,-0.33323 -0.30943,-0.59506 -0.19042,-0.26182 -0.52366,-0.38084 -0.30943,-0.11901 -0.69026,-0.11901 -0.52366,0 -1.07111,0.23803 -0.54746,0.23802 -0.9521,0.66646 -0.38084,0.42845 -0.64266,0.9521 -0.23803,0.49985 -0.38084,1.0235 l -2.14222,8.02141 h -1.90419 l 3.30853,-12.37725 h 1.9042 l -0.45225,1.73758 q 0.28563,-0.42845 0.69027,-0.80928 0.40464,-0.38084 0.85689,-0.61887 0.47604,-0.26182 0.95209,-0.38083 0.49985,-0.11902 0.9759,-0.11902 0.59506,0 1.09491,0.21422 0.52365,0.19042 0.80928,0.61887 0.28563,0.42844 0.40464,0.9759 0.11902,0.52365 0.11902,1.09491 0.26182,-0.59506 0.66646,-1.14252 0.40464,-0.57126 0.9521,-0.9759 0.54745,-0.40464 1.16632,-0.59506 0.64266,-0.19042 1.23772,-0.19042 0.45225,0 0.88069,0.11902 0.42844,0.11901 0.71407,0.38083 0.30943,0.26183 0.47605,0.64267 0.16662,0.35703 0.23802,0.78548 0.0952,0.40464 0.0952,0.85688 0.0238,0.42845 -0.0238,0.88069 -0.0476,0.42845 -0.14281,0.88069 -0.0952,0.45225 -0.21422,0.9283 l -1.35674,5.0223 q -0.0238,0.11901 -0.0238,0.23803 0,0.11901 0.0476,0.21422 0.0714,0.0714 0.19042,0.11901 0.11901,0.0238 0.23802,0.0238 h 0.47605 z m 6.37905,0 q -0.71407,0 -1.40434,-0.16662 -0.66647,-0.14281 -1.19012,-0.52365 -0.49985,-0.38084 -0.80928,-0.9521 -0.28563,-0.57125 -0.38084,-1.23772 -0.0952,-0.66647 -0.0238,-1.38054 0.0952,-0.71407 0.28563,-1.42814 l 0.76167,-2.85629 q 0.14282,-0.57126 0.38084,-1.11871 0.26183,-0.57126 0.64267,-1.07111 0.38083,-0.49985 0.88069,-0.90449 0.52365,-0.40464 1.09491,-0.66647 0.57125,-0.26183 1.14251,-0.35704 0.59506,-0.0952 1.16632,-0.0952 0.71407,0 1.38054,0.16662 0.69027,0.14281 1.19012,0.52365 0.52365,0.38084 0.80928,0.9521 0.30943,0.57126 0.40464,1.23772 0.0952,0.66647 0,1.38054 -0.0714,0.71408 -0.26183,1.42815 l -0.76167,2.85629 q -0.14282,0.57125 -0.40464,1.14251 -0.23803,0.54746 -0.61887,1.04731 -0.38083,0.49985 -0.90449,0.90449 -0.49985,0.40464 -1.07111,0.66646 -0.57125,0.26183 -1.16631,0.35704 -0.57126,0.0952 -1.14252,0.0952 z m 0,-1.66617 q 0.38084,0 0.76168,-0.0714 0.40464,-0.0714 0.78548,-0.26182 0.40464,-0.21422 0.71407,-0.49985 0.33323,-0.28563 0.57126,-0.64267 0.26182,-0.35703 0.42844,-0.73787 0.16662,-0.38084 0.26183,-0.76168 l 0.76167,-2.85629 q 0.11902,-0.42844 0.16662,-0.83308 0.0714,-0.42844 0.0476,-0.83308 -0.0238,-0.40465 -0.14282,-0.76168 -0.0952,-0.38084 -0.35704,-0.64267 -0.26182,-0.28562 -0.64266,-0.40464 -0.35704,-0.11901 -0.78548,-0.11901 -0.38084,0 -0.78548,0.0714 -0.40464,0.0714 -0.80928,0.28563 -0.38084,0.19042 -0.71407,0.47605 -0.30943,0.28562 -0.57126,0.64266 -0.23802,0.35704 -0.40464,0.73787 -0.16662,0.38084 -0.26183,0.76168 l -0.76167,2.85629 q -0.11902,0.42844 -0.19042,0.85689 -0.0476,0.40464 -0.0238,0.80928 0.0238,0.40464 0.11902,0.78548 0.11901,0.35703 0.38084,0.64266 0.26182,0.26183 0.64266,0.38084 0.38084,0.11901 0.80928,0.11901 z m 11.9012,1.66617 q -0.71407,0 -1.33293,-0.23802 -0.61887,-0.23803 -0.9521,-0.76168 -0.30943,-0.52365 -0.30943,-1.21392 0,-0.69027 0.19042,-1.38054 l 3.78458,-14.09102 h 1.90419 l -3.90359,14.51946 q -0.0714,0.28563 -0.0714,0.59506 0,0.28563 0.14282,0.49985 0.16661,0.21422 0.42844,0.30943 0.26183,0.0952 0.57126,0.0952 0.23802,0 0.47604,-0.0476 0.26183,-0.0714 0.52366,-0.16662 l -0.45225,1.66617 q -0.26182,0.0952 -0.52365,0.14281 -0.23803,0.0714 -0.47605,0.0714 z m 7.09313,0 q -0.66647,0 -1.28533,-0.19042 -0.59506,-0.21422 -0.99971,-0.64266 -0.38083,-0.42845 -0.57125,-0.9997 -0.16662,-0.59506 -0.21422,-1.21393 -0.0238,-0.64266 0.0714,-1.30913 0.11901,-0.66647 0.30943,-1.33293 l 0.76168,-2.85629 q 0.14282,-0.52365 0.33323,-1.02351 0.19042,-0.49985 0.47605,-0.97589 0.30943,-0.47605 0.69027,-0.90449 0.38084,-0.42845 0.85689,-0.73788 0.49985,-0.30943 1.0235,-0.42844 0.52365,-0.14282 1.04731,-0.14282 0.64266,0 1.23772,0.19042 0.59506,0.19042 0.9759,0.61886 0.40464,0.40465 0.59506,0.9759 0.21422,0.54746 0.23802,1.19012 l 2.11842,-7.90239 h 1.90419 l -4.14162,15.42395 q -0.0238,0.11901 -0.0238,0.23803 0,0.11901 0.0476,0.21422 0.0714,0.0714 0.19041,0.11901 0.11902,0.0238 0.23803,0.0238 h 0.47605 v 1.66617 h -0.9283 q -0.45224,0 -0.88069,-0.11901 -0.40464,-0.0952 -0.69027,-0.35704 -0.28562,-0.26182 -0.40464,-0.66647 -0.0952,-0.40464 0,-0.85688 -0.28563,0.45224 -0.66646,0.83308 -0.38084,0.38084 -0.85689,0.66647 -0.47605,0.26183 -0.9759,0.38084 -0.47605,0.11901 -0.95209,0.11901 z m 0.76167,-1.66617 q 0.54746,0 1.09491,-0.14281 0.54746,-0.16662 1.02351,-0.54746 0.47604,-0.38084 0.76167,-0.88069 0.28563,-0.52365 0.42845,-1.0473 l 0.76167,-2.85629 q 0.11901,-0.45225 0.19042,-0.88069 0.0952,-0.45224 0.0952,-0.88069 0,-0.42844 -0.0952,-0.83308 -0.0952,-0.40464 -0.33323,-0.71407 -0.21422,-0.33324 -0.59506,-0.47605 -0.38084,-0.16662 -0.80928,-0.16662 -0.57126,0 -1.16632,0.21422 -0.59506,0.21422 -1.07111,0.64267 -0.47605,0.42844 -0.76168,0.9997 -0.26182,0.54745 -0.42844,1.11871 l -0.76168,2.85629 q -0.11901,0.40464 -0.19042,0.83308 -0.0476,0.42845 -0.0476,0.83309 0.0238,0.38084 0.14281,0.76167 0.11902,0.35704 0.33324,0.64267 0.23802,0.26183 0.61886,0.40464 0.40464,0.11901 0.80928,0.11901 z m 11.04432,1.66617 q -0.30944,0 -0.61887,-0.0714 -0.30943,-0.0714 -0.54745,-0.23802 -0.23803,-0.16662 -0.40464,-0.40464 -0.16662,-0.23803 -0.23803,-0.52365 -0.0476,-0.30944 -0.0714,-0.61887 0,-0.33323 0.0952,-0.64266 0.0714,-0.26183 0.26182,-0.52365 0.19042,-0.26183 0.42844,-0.40465 0.23803,-0.16661 0.52366,-0.21422 0.30943,-0.0714 0.57126,-0.0714 0.33323,0 0.61886,0.0714 0.30943,0.0714 0.54745,0.23803 0.23803,0.16661 0.40464,0.40464 0.16662,0.23802 0.21423,0.54745 0.0714,0.28563 0.0714,0.61887 0,0.30943 -0.0952,0.61886 -0.0714,0.26182 -0.23802,0.52365 -0.16662,0.26183 -0.42844,0.42844 -0.26183,0.14282 -0.54746,0.19042 -0.26183,0.0714 -0.54745,0.0714 z"
       id="text52"
       transform="scale(0.96755479,1.0335332)"
       aria-label="Breaking the mold." />
  </g>
</svg>
